# xmcd
# 
# Track frame offsets:
#     150
#     13830
#     37481
#     53810
#     85755
#     114047
#     131656
#     163167
#     185213
#     212704
#     226238
#     246248
#     267702
#     288620
# 
# Disc length: 4202
# 
# Revision: 3
# Processed by: cddbd v1.5.2PL0 Copyright (c) Steve Scherf et al.
# Submitted via: fre:ac v1.1beta1pre4
# 
DISCID=d610680e
DTITLE=Hans Theesink and Terry Evans - True and Blue
DYEAR=2015
DGENRE=Blues
TTITLE0=Demons
TTITLE1=Mother Earth
TTITLE2=Glory Of Love
TTITLE3=Gotta Keep Moving
TTITLE4=Vicksburg Is My Home
TTITLE5=Bourgeois Blues
TTITLE6=Don't Let The Green Grass Fool You
TTITLE7=Cross Road Blues
TTITLE8=Maybellene
TTITLE9=Delta Time
TTITLE10=Talk To Your Daughter
TTITLE11=Shelter From The Storm
TTITLE12=I Need Money
TTITLE13=Tears Are Rolling
EXTD=
EXTT0=
EXTT1=
EXTT2=
EXTT3=
EXTT4=
EXTT5=
EXTT6=
EXTT7=
EXTT8=
EXTT9=
EXTT10=
EXTT11=
EXTT12=
EXTT13=
PLAYORDER=
